{"glyphs":{"0":{"ha":546,"x_min":46,"x_max":501,"o":"m 410 1000 l 500 910 l 500 90 l 410 0 l 136 0 l 46 90 l 46 910 l 136 1000 l 410 1000 m 318 182 l 318 454 l 228 546 l 228 182 l 318 182 m 318 636 l 318 818 l 228 818 l 228 636 l 318 636 z "},"1":{"ha":546,"x_min":46,"x_max":501,"o":"m 364 182 l 500 182 l 500 0 l 46 0 l 46 182 l 182 182 l 182 728 l 274 818 l 46 818 l 46 1000 l 274 1000 l 364 910 l 364 182 z "},"2":{"ha":546,"x_min":46,"x_max":501,"o":"m 410 1000 l 500 910 l 500 454 l 410 364 l 228 364 l 228 182 l 500 182 l 500 0 l 46 0 l 46 454 l 136 546 l 318 546 l 318 818 l 228 818 l 228 636 l 46 636 l 46 910 l 136 1000 l 410 1000 z "},"3":{"ha":546,"x_min":46,"x_max":501,"o":"m 410 1000 l 500 910 l 500 636 l 410 546 l 500 454 l 500 90 l 410 0 l 46 0 l 46 182 l 318 182 l 318 546 l 228 454 l 46 454 l 46 636 l 318 636 l 318 818 l 46 818 l 46 1000 l 410 1000 z "},"4":{"ha":546,"x_min":46,"x_max":501,"o":"m 500 1000 l 500 0 l 318 0 l 318 454 l 228 364 l 136 364 l 46 454 l 46 1000 l 228 1000 l 228 546 l 318 546 l 318 1000 l 500 1000 z "},"5":{"ha":546,"x_min":46,"x_max":501,"o":"m 500 1000 l 500 818 l 228 818 l 228 636 l 410 636 l 500 546 l 500 90 l 410 0 l 136 0 l 46 90 l 46 364 l 228 364 l 228 182 l 318 182 l 318 454 l 136 454 l 46 546 l 46 1000 l 500 1000 z "},"6":{"ha":546,"x_min":46,"x_max":501,"o":"m 500 818 l 228 818 l 228 546 l 318 636 l 410 636 l 500 546 l 500 90 l 410 0 l 136 0 l 46 90 l 46 910 l 136 1000 l 500 1000 l 500 818 m 318 454 l 228 454 l 228 182 l 318 182 l 318 454 z "},"7":{"ha":546,"x_min":46,"x_max":501,"o":"m 410 1000 l 500 910 l 500 636 l 318 454 l 228 454 l 228 0 l 46 0 l 46 454 l 228 636 l 318 636 l 318 818 l 46 818 l 46 1000 l 410 1000 z "},"8":{"ha":546,"x_min":46,"x_max":501,"o":"m 500 910 l 500 636 l 410 546 l 500 454 l 500 90 l 410 0 l 136 0 l 46 90 l 46 454 l 136 546 l 46 636 l 46 910 l 136 1000 l 410 1000 l 500 910 m 318 182 l 318 454 l 228 546 l 228 182 l 318 182 m 318 636 l 318 818 l 228 818 l 228 636 l 318 636 z "},"9":{"ha":546,"x_min":46,"x_max":501,"o":"m 136 1000 l 410 1000 l 500 910 l 500 90 l 410 0 l 46 0 l 46 182 l 318 182 l 318 454 l 228 364 l 136 364 l 46 454 l 46 910 l 136 1000 m 318 546 l 318 818 l 228 818 l 228 546 l 318 546 z "}," ":{"ha":272,"x_min":0,"x_max":0,"o":""},"!":{"ha":272,"x_min":46,"x_max":228,"o":"m 46 0 l 46 182 l 228 182 l 228 0 l 46 0 m 228 1000 l 228 272 l 136 272 l 46 364 l 46 1000 l 228 1000 z "},"\"":{"ha":499,"x_min":46,"x_max":454,"o":"m 136 728 l 46 728 l 46 1000 l 228 1000 l 228 818 l 136 728 m 363 728 l 272 728 l 272 1000 l 454 1000 l 454 818 l 363 728 z "},"#":{"ha":728,"x_min":46,"x_max":683,"o":"m 592 546 l 592 364 l 682 364 l 682 182 l 592 182 l 592 0 l 410 0 l 410 90 l 500 182 l 318 182 l 318 0 l 136 0 l 136 90 l 228 182 l 46 182 l 46 364 l 136 364 l 136 454 l 228 546 l 46 546 l 46 728 l 136 728 l 136 1000 l 318 1000 l 318 728 l 410 728 l 410 1000 l 592 1000 l 592 728 l 682 728 l 682 546 l 592 546 m 318 364 l 410 364 l 410 454 l 500 546 l 318 546 l 318 364 z "},"$":{"ha":546,"x_min":46,"x_max":501,"o":"m 364 910 l 500 910 l 500 728 l 228 728 l 228 636 l 410 636 l 500 546 l 500 272 l 410 182 l 364 182 l 364 0 l 182 0 l 182 90 l 274 182 l 46 182 l 46 364 l 318 364 l 318 454 l 136 454 l 46 546 l 46 818 l 136 910 l 182 910 l 182 1000 l 364 1000 l 364 910 z "},"%":{"ha":546,"x_min":46,"x_max":501,"o":"m 500 1000 l 500 636 l 318 454 l 228 454 l 228 0 l 46 0 l 46 454 l 228 636 l 318 636 l 318 1000 l 500 1000 m 136 728 l 46 728 l 46 1000 l 228 1000 l 228 818 l 136 728 m 410 364 l 500 364 l 500 0 l 318 0 l 318 272 l 410 364 z "},"&":{"ha":728,"x_min":46,"x_max":683,"o":"m 228 636 l 682 636 l 682 546 l 592 454 l 500 454 l 500 90 l 410 0 l 136 0 l 46 90 l 46 454 l 136 546 l 46 636 l 46 910 l 136 1000 l 410 1000 l 500 910 l 500 728 l 318 728 l 318 818 l 228 818 l 228 636 m 318 364 l 410 454 l 228 454 l 228 182 l 318 182 l 318 364 z "},"'":{"ha":272,"x_min":46,"x_max":228,"o":"m 136 728 l 46 728 l 46 1000 l 228 1000 l 228 818 l 136 728 z "},"(":{"ha":454,"x_min":46,"x_max":410,"o":"m 136 1182 l 46 1090 l 46 -90 l 136 -182 l 410 -182 l 410 0 l 228 0 l 228 1000 l 410 1000 l 410 1182 l 136 1182 z "},")":{"ha":454,"x_min":46,"x_max":410,"o":"m 318 1182 l 410 1090 l 410 -90 l 318 -182 l 46 -182 l 46 0 l 228 0 l 228 1000 l 46 1000 l 46 1182 l 318 1182 z "},"*":{"ha":364,"x_min":46,"x_max":319,"o":"m 318 818 l 228 818 l 228 728 l 136 728 l 136 818 l 46 818 l 46 910 l 136 910 l 136 1000 l 228 1000 l 228 910 l 318 910 l 318 818 z "},"+":{"ha":546,"x_min":46,"x_max":501,"o":"m 364 636 l 500 636 l 500 454 l 364 454 l 364 182 l 182 182 l 182 364 l 274 454 l 46 454 l 46 636 l 182 636 l 182 910 l 364 910 l 364 636 z "},",":{"ha":272,"x_min":46,"x_max":228,"o":"m 136 -90 l 46 -90 l 46 182 l 228 182 l 228 0 l 136 -90 z "},"-":{"ha":546,"x_min":46,"x_max":501,"o":"m 46 454 l 46 636 l 500 636 l 500 454 l 46 454 z "},".":{"ha":272,"x_min":46,"x_max":228,"o":"m 46 0 l 46 182 l 228 182 l 228 0 l 46 0 z "},"/":{"ha":546,"x_min":46,"x_max":501,"o":"m 361 1182 l 500 1182 l 500 1018 l 185 -182 l 46 -182 l 46 -18 l 361 1182 z "},":":{"ha":272,"x_min":46,"x_max":228,"o":"m 46 272 l 46 454 l 228 454 l 228 272 l 46 272 m 46 636 l 46 818 l 228 818 l 228 636 l 46 636 z "},";":{"ha":272,"x_min":46,"x_max":228,"o":"m 136 182 l 46 182 l 46 454 l 228 454 l 228 272 l 136 182 m 46 636 l 46 818 l 228 818 l 228 636 l 46 636 z "},"<":{"ha":454,"x_min":46,"x_max":410,"o":"m 410 272 l 410 364 l 318 454 l 228 454 l 228 546 l 318 546 l 410 636 l 410 728 l 228 728 l 46 546 l 46 454 l 228 272 l 410 272 z "},"=":{"ha":546,"x_min":46,"x_max":501,"o":"m 46 636 l 46 818 l 500 818 l 500 636 l 46 636 m 46 272 l 46 454 l 500 454 l 500 272 l 46 272 z "},">":{"ha":454,"x_min":46,"x_max":410,"o":"m 46 272 l 46 364 l 136 454 l 228 454 l 228 546 l 136 546 l 46 636 l 46 728 l 228 728 l 410 546 l 410 454 l 228 272 l 46 272 z "},"?":{"ha":546,"x_min":46,"x_max":501,"o":"m 46 0 l 46 182 l 228 182 l 228 0 l 46 0 m 410 1000 l 500 910 l 500 546 l 410 454 l 228 454 l 228 272 l 136 272 l 46 364 l 46 546 l 136 636 l 318 636 l 318 818 l 46 818 l 46 1000 l 410 1000 z "},"@":{"ha":818,"x_min":46,"x_max":774,"o":"m 682 1000 l 774 910 l 774 272 l 410 272 l 318 364 l 318 636 l 410 728 l 500 728 l 500 454 l 592 454 l 592 818 l 228 818 l 228 182 l 774 182 l 774 0 l 136 0 l 46 90 l 46 910 l 136 1000 l 682 1000 z "},"A":{"ha":546,"x_min":46,"x_max":501,"o":"m 410 1000 l 500 910 l 500 0 l 318 0 l 318 454 l 228 454 l 228 0 l 46 0 l 46 728 l 136 818 l 46 818 l 46 1000 l 410 1000 m 318 636 l 318 818 l 228 818 l 228 546 l 318 636 z "},"B":{"ha":546,"x_min":46,"x_max":501,"o":"m 410 1000 l 500 910 l 500 636 l 410 546 l 500 454 l 500 90 l 410 0 l 46 0 l 46 728 l 136 818 l 46 818 l 46 1000 l 410 1000 m 318 182 l 318 818 l 228 818 l 228 182 l 318 182 z "},"C":{"ha":546,"x_min":46,"x_max":501,"o":"m 500 910 l 500 636 l 318 636 l 318 818 l 228 818 l 228 182 l 318 182 l 318 454 l 500 454 l 500 90 l 410 0 l 136 0 l 46 90 l 46 728 l 136 818 l 46 818 l 46 1000 l 410 1000 l 500 910 z "},"D":{"ha":546,"x_min":46,"x_max":501,"o":"m 410 1000 l 500 910 l 500 90 l 410 0 l 46 0 l 46 728 l 136 818 l 46 818 l 46 1000 l 410 1000 m 318 182 l 318 818 l 228 818 l 228 182 l 318 182 z "},"E":{"ha":546,"x_min":46,"x_max":501,"o":"m 46 1000 l 500 1000 l 500 818 l 228 818 l 228 636 l 410 636 l 410 454 l 318 454 l 228 546 l 228 182 l 500 182 l 500 0 l 136 0 l 46 90 l 46 728 l 136 818 l 46 818 l 46 1000 z "},"F":{"ha":546,"x_min":46,"x_max":501,"o":"m 46 1000 l 500 1000 l 500 818 l 228 818 l 228 636 l 410 636 l 410 454 l 318 454 l 228 546 l 228 0 l 46 0 l 46 728 l 136 818 l 46 818 l 46 1000 z "},"G":{"ha":546,"x_min":46,"x_max":501,"o":"m 46 1000 l 500 1000 l 500 818 l 228 818 l 228 182 l 318 182 l 318 636 l 500 636 l 500 90 l 410 0 l 46 0 l 46 728 l 136 818 l 46 818 l 46 1000 z "},"H":{"ha":546,"x_min":46,"x_max":501,"o":"m 500 1000 l 500 0 l 318 0 l 318 454 l 228 454 l 228 0 l 46 0 l 46 728 l 136 818 l 46 818 l 46 1000 l 228 1000 l 228 546 l 318 636 l 318 1000 l 500 1000 z "},"I":{"ha":546,"x_min":46,"x_max":501,"o":"m 364 272 l 274 182 l 500 182 l 500 0 l 46 0 l 46 182 l 182 182 l 182 728 l 274 818 l 46 818 l 46 1000 l 500 1000 l 500 818 l 364 818 l 364 272 z "},"J":{"ha":546,"x_min":46,"x_max":501,"o":"m 46 1000 l 500 1000 l 500 818 l 410 818 l 500 728 l 500 90 l 410 0 l 136 0 l 46 90 l 46 636 l 228 636 l 228 182 l 318 182 l 318 818 l 46 818 l 46 1000 z "},"K":{"ha":546,"x_min":46,"x_max":501,"o":"m 500 1000 l 500 636 l 410 546 l 500 454 l 500 0 l 318 0 l 318 454 l 228 454 l 228 0 l 46 0 l 46 728 l 136 818 l 46 818 l 46 1000 l 228 1000 l 228 546 l 318 636 l 318 1000 l 500 1000 z "},"L":{"ha":546,"x_min":46,"x_max":501,"o":"m 228 182 l 500 182 l 500 0 l 136 0 l 46 90 l 46 728 l 136 818 l 46 818 l 46 1000 l 228 1000 l 228 182 z "},"M":{"ha":818,"x_min":46,"x_max":774,"o":"m 682 1000 l 774 910 l 774 0 l 592 0 l 592 818 l 500 818 l 500 0 l 318 0 l 318 818 l 228 818 l 228 0 l 46 0 l 46 728 l 136 818 l 46 818 l 46 1000 l 410 1000 l 500 910 l 500 1000 l 682 1000 z "},"N":{"ha":546,"x_min":46,"x_max":501,"o":"m 500 910 l 500 0 l 318 0 l 318 818 l 228 818 l 228 0 l 46 0 l 46 728 l 136 818 l 46 818 l 46 1000 l 410 1000 l 500 910 z "},"O":{"ha":546,"x_min":46,"x_max":501,"o":"m 410 1000 l 500 910 l 500 90 l 410 0 l 136 0 l 46 90 l 46 910 l 136 1000 l 410 1000 m 318 182 l 318 818 l 228 818 l 228 182 l 318 182 z "},"P":{"ha":546,"x_min":46,"x_max":501,"o":"m 500 910 l 500 454 l 410 364 l 318 364 l 318 818 l 228 818 l 228 0 l 46 0 l 46 728 l 136 818 l 46 818 l 46 1000 l 410 1000 l 500 910 z "},"Q":{"ha":546,"x_min":46,"x_max":501,"o":"m 500 910 l 500 90 l 410 0 l 500 -90 l 318 -90 l 228 0 l 136 0 l 46 90 l 46 910 l 136 1000 l 410 1000 l 500 910 m 228 818 l 228 182 l 318 182 l 318 818 l 228 818 z "},"R":{"ha":546,"x_min":46,"x_max":501,"o":"m 500 910 l 500 636 l 410 546 l 500 454 l 500 0 l 318 0 l 318 818 l 228 818 l 228 0 l 46 0 l 46 728 l 136 818 l 46 818 l 46 1000 l 410 1000 l 500 910 z "},"S":{"ha":546,"x_min":46,"x_max":501,"o":"m 500 1000 l 500 818 l 228 818 l 228 636 l 410 636 l 500 546 l 500 90 l 410 0 l 46 0 l 46 182 l 318 182 l 318 454 l 136 454 l 46 546 l 46 728 l 136 818 l 46 818 l 46 1000 l 500 1000 z "},"T":{"ha":546,"x_min":46,"x_max":501,"o":"m 46 1000 l 500 1000 l 500 818 l 364 818 l 364 0 l 182 0 l 182 728 l 274 818 l 46 818 l 46 1000 z "},"U":{"ha":546,"x_min":46,"x_max":501,"o":"m 500 1000 l 500 0 l 318 0 l 318 90 l 228 0 l 136 0 l 46 90 l 46 728 l 136 818 l 46 818 l 46 1000 l 228 1000 l 228 182 l 318 182 l 318 1000 l 500 1000 z "},"V":{"ha":546,"x_min":46,"x_max":501,"o":"m 500 1000 l 500 182 l 318 0 l 228 0 l 46 182 l 46 728 l 136 818 l 46 818 l 46 1000 l 228 1000 l 228 182 l 318 182 l 318 1000 l 500 1000 z "},"W":{"ha":818,"x_min":46,"x_max":774,"o":"m 774 1000 l 774 90 l 682 0 l 410 0 l 318 90 l 318 0 l 136 0 l 46 90 l 46 728 l 136 818 l 46 818 l 46 1000 l 228 1000 l 228 182 l 318 182 l 318 1000 l 500 1000 l 500 182 l 592 182 l 592 1000 l 774 1000 z "},"X":{"ha":546,"x_min":46,"x_max":501,"o":"m 500 1000 l 500 636 l 410 546 l 500 454 l 500 0 l 318 0 l 318 454 l 228 546 l 228 0 l 46 0 l 46 454 l 136 546 l 46 636 l 46 728 l 136 818 l 46 818 l 46 1000 l 228 1000 l 228 636 l 318 636 l 318 1000 l 500 1000 z "},"Y":{"ha":546,"x_min":46,"x_max":501,"o":"m 500 1000 l 500 546 l 410 454 l 364 454 l 364 0 l 182 0 l 182 364 l 274 454 l 136 454 l 46 546 l 46 728 l 136 818 l 46 818 l 46 1000 l 228 1000 l 228 636 l 318 636 l 318 1000 l 500 1000 z "},"Z":{"ha":546,"x_min":46,"x_max":501,"o":"m 500 1000 l 500 546 l 410 454 l 228 454 l 228 182 l 500 182 l 500 0 l 46 0 l 46 546 l 136 636 l 318 636 l 318 728 l 410 818 l 46 818 l 46 1000 l 500 1000 z "},"[":{"ha":454,"x_min":46,"x_max":410,"o":"m 46 1182 l 46 -182 l 410 -182 l 410 0 l 228 0 l 228 1000 l 410 1000 l 410 1182 l 46 1182 z "},"\\":{"ha":546,"x_min":46,"x_max":501,"o":"m 185 1182 l 500 -18 l 500 -182 l 361 -182 l 46 1018 l 46 1182 l 185 1182 z "},"]":{"ha":454,"x_min":46,"x_max":410,"o":"m 410 1182 l 410 -182 l 46 -182 l 46 0 l 228 0 l 228 1000 l 46 1000 l 46 1182 l 410 1182 z "},"^":{"ha":546,"x_min":46,"x_max":501,"o":"m 500 636 l 410 636 l 318 728 l 318 818 l 228 818 l 228 728 l 136 636 l 46 636 l 46 818 l 228 1000 l 318 1000 l 500 818 l 500 636 z "},"_":{"ha":546,"x_min":46,"x_max":501,"o":"m 46 0 l 46 182 l 500 182 l 500 0 l 46 0 z "},"`":{"ha":272,"x_min":46,"x_max":228,"o":"m 136 728 l 228 728 l 228 1000 l 46 1000 l 46 818 l 136 728 z "},"a":{"ha":546,"x_min":46,"x_max":501,"o":"m 500 636 l 500 0 l 136 0 l 46 90 l 46 364 l 136 454 l 228 454 l 228 182 l 318 182 l 318 546 l 46 546 l 46 728 l 410 728 l 500 636 z "},"b":{"ha":546,"x_min":46,"x_max":501,"o":"m 410 728 l 500 636 l 500 90 l 410 0 l 318 0 l 228 90 l 228 0 l 46 0 l 46 1000 l 228 1000 l 228 636 l 318 728 l 410 728 m 318 182 l 318 546 l 228 546 l 228 182 l 318 182 z "},"c":{"ha":546,"x_min":46,"x_max":501,"o":"m 228 546 l 228 182 l 500 182 l 500 0 l 136 0 l 46 90 l 46 636 l 136 728 l 500 728 l 500 546 l 228 546 z "},"d":{"ha":546,"x_min":46,"x_max":501,"o":"m 318 1000 l 500 1000 l 500 0 l 318 0 l 318 90 l 228 0 l 136 0 l 46 90 l 46 636 l 136 728 l 228 728 l 318 636 l 318 1000 m 318 182 l 318 546 l 228 546 l 228 182 l 318 182 z "},"e":{"ha":546,"x_min":46,"x_max":501,"o":"m 318 272 l 318 546 l 228 546 l 228 182 l 500 182 l 500 0 l 136 0 l 46 90 l 46 728 l 410 728 l 500 636 l 500 364 l 410 272 l 318 272 z "},"f":{"ha":546,"x_min":46,"x_max":501,"o":"m 500 1000 l 500 818 l 228 818 l 228 728 l 500 728 l 500 546 l 318 546 l 228 636 l 228 0 l 46 0 l 46 910 l 136 1000 l 500 1000 z "},"g":{"ha":546,"x_min":46,"x_max":501,"o":"m 500 728 l 500 -182 l 410 -272 l 46 -272 l 46 -90 l 318 -90 l 318 546 l 228 546 l 228 0 l 136 0 l 46 90 l 46 636 l 136 728 l 500 728 z "},"h":{"ha":546,"x_min":46,"x_max":501,"o":"m 410 728 l 500 636 l 500 0 l 318 0 l 318 546 l 228 546 l 228 0 l 46 0 l 46 1000 l 228 1000 l 228 636 l 318 728 l 410 728 z "},"i":{"ha":272,"x_min":46,"x_max":228,"o":"m 46 818 l 46 1000 l 228 1000 l 228 818 l 46 818 m 46 0 l 46 636 l 136 728 l 228 728 l 228 0 l 46 0 z "},"j":{"ha":272,"x_min":-228,"x_max":228,"o":"m 136 728 l 228 728 l 228 -182 l 136 -272 l -226 -272 l -226 -90 l 46 -90 l 46 636 l 136 728 m 46 818 l 46 1000 l 228 1000 l 228 818 l 46 818 z "},"k":{"ha":546,"x_min":46,"x_max":501,"o":"m 500 728 l 500 546 l 410 454 l 500 364 l 500 0 l 318 0 l 318 364 l 228 364 l 228 0 l 46 0 l 46 910 l 228 910 l 228 454 l 318 546 l 318 728 l 500 728 z "},"l":{"ha":272,"x_min":46,"x_max":228,"o":"m 46 1000 l 228 1000 l 228 0 l 46 0 l 46 728 l 136 818 l 46 818 l 46 1000 z "},"m":{"ha":818,"x_min":46,"x_max":774,"o":"m 682 728 l 774 636 l 774 0 l 592 0 l 592 546 l 500 546 l 500 0 l 318 0 l 318 546 l 228 546 l 228 0 l 46 0 l 46 454 l 136 546 l 46 546 l 46 728 l 410 728 l 500 636 l 500 728 l 682 728 z "},"n":{"ha":546,"x_min":46,"x_max":501,"o":"m 500 636 l 500 0 l 318 0 l 318 546 l 228 546 l 228 0 l 46 0 l 46 454 l 136 546 l 46 546 l 46 728 l 410 728 l 500 636 z "},"o":{"ha":546,"x_min":46,"x_max":501,"o":"m 410 728 l 500 636 l 500 90 l 410 0 l 136 0 l 46 90 l 46 636 l 136 728 l 410 728 m 318 182 l 318 546 l 228 546 l 228 182 l 318 182 z "},"p":{"ha":546,"x_min":46,"x_max":501,"o":"m 410 728 l 500 636 l 500 90 l 410 0 l 318 0 l 318 546 l 228 546 l 228 -272 l 46 -272 l 46 728 l 410 728 z "},"q":{"ha":546,"x_min":46,"x_max":501,"o":"m 500 728 l 500 -272 l 318 -272 l 318 546 l 228 546 l 228 0 l 136 0 l 46 90 l 46 636 l 136 728 l 500 728 z "},"r":{"ha":546,"x_min":46,"x_max":501,"o":"m 318 728 l 500 728 l 500 546 l 228 546 l 228 0 l 46 0 l 46 728 l 228 728 l 228 636 l 318 728 z "},"s":{"ha":546,"x_min":46,"x_max":501,"o":"m 500 728 l 500 546 l 228 546 l 228 454 l 410 454 l 500 364 l 500 90 l 410 0 l 46 0 l 46 182 l 318 182 l 318 272 l 136 272 l 46 364 l 46 636 l 136 728 l 500 728 z "},"t":{"ha":546,"x_min":46,"x_max":501,"o":"m 318 728 l 500 728 l 500 546 l 318 546 l 318 182 l 500 182 l 500 0 l 228 0 l 136 90 l 136 546 l 46 546 l 46 728 l 136 728 l 228 818 l 136 818 l 136 1000 l 318 1000 l 318 728 z "},"u":{"ha":546,"x_min":46,"x_max":501,"o":"m 500 728 l 500 0 l 318 0 l 318 90 l 228 0 l 136 0 l 46 90 l 46 728 l 228 728 l 228 182 l 318 182 l 318 728 l 500 728 z "},"v":{"ha":546,"x_min":46,"x_max":501,"o":"m 46 728 l 228 728 l 228 182 l 318 182 l 318 728 l 500 728 l 500 182 l 318 0 l 228 0 l 46 182 l 46 728 z "},"w":{"ha":818,"x_min":46,"x_max":774,"o":"m 774 728 l 774 90 l 682 0 l 410 0 l 318 90 l 318 0 l 136 0 l 46 90 l 46 728 l 228 728 l 228 182 l 318 182 l 318 728 l 500 728 l 500 182 l 592 182 l 592 728 l 774 728 z "},"x":{"ha":546,"x_min":46,"x_max":501,"o":"m 500 728 l 500 454 l 410 364 l 500 272 l 500 0 l 318 0 l 318 272 l 228 364 l 228 0 l 46 0 l 46 272 l 136 364 l 46 454 l 46 728 l 228 728 l 228 454 l 318 454 l 318 728 l 500 728 z "},"y":{"ha":546,"x_min":46,"x_max":501,"o":"m 500 728 l 500 -182 l 410 -272 l 46 -272 l 46 -90 l 318 -90 l 318 90 l 228 0 l 136 0 l 46 90 l 46 728 l 228 728 l 228 182 l 318 182 l 318 728 l 500 728 z "},"z":{"ha":546,"x_min":46,"x_max":501,"o":"m 228 272 l 228 182 l 500 182 l 500 0 l 46 0 l 46 364 l 136 454 l 318 454 l 318 546 l 46 546 l 46 728 l 500 728 l 500 364 l 410 272 l 228 272 z "},"{":{"ha":636,"x_min":46,"x_max":592,"o":"m 46 546 l 46 454 l 228 272 l 228 -90 l 318 -182 l 592 -182 l 592 0 l 410 0 l 410 364 l 318 454 l 228 454 l 228 546 l 318 546 l 410 636 l 410 1000 l 592 1000 l 592 1182 l 318 1182 l 228 1090 l 228 728 l 46 546 z "},"|":{"ha":272,"x_min":46,"x_max":228,"o":"m 46 1182 l 228 1182 l 228 -182 l 46 -182 l 46 1182 z "},"}":{"ha":636,"x_min":46,"x_max":592,"o":"m 592 546 l 592 454 l 410 272 l 410 -90 l 318 -182 l 46 -182 l 46 0 l 228 0 l 228 364 l 318 454 l 410 454 l 410 546 l 318 546 l 228 636 l 228 1000 l 46 1000 l 46 1182 l 318 1182 l 410 1090 l 410 728 l 592 546 z "},"“":{"ha":499,"x_min":46,"x_max":454,"o":"m 363 728 l 454 728 l 454 1000 l 272 1000 l 272 818 l 363 728 m 136 728 l 228 728 l 228 1000 l 46 1000 l 46 818 l 136 728 z "},"”":{"ha":499,"x_min":46,"x_max":454,"o":"m 136 728 l 46 728 l 46 1000 l 228 1000 l 228 818 l 136 728 m 363 728 l 272 728 l 272 1000 l 454 1000 l 454 818 l 363 728 z "},"´":{"ha":272,"x_min":46,"x_max":228,"o":"m 136 728 l 46 728 l 46 1000 l 228 1000 l 228 818 l 136 728 z "}}}
